<?xml version="1.0" encoding="utf-8"?>
<!-- Generator: Adobe Illustrator 21.0.0, SVG Export Plug-In . SVG Version: 6.00 Build 0)  -->
<svg version="1.1" id="Layer_2" xmlns="http://www.w3.org/2000/svg" xmlns:xlink="http://www.w3.org/1999/xlink" x="0px" y="0px"
	 viewBox="0 0 612 792" style="enable-background:new 0 0 612 792;" xml:space="preserve">
<style type="text/css">
	.st0{fill:none;stroke:#0F6C47;stroke-width:7;stroke-linecap:round;stroke-linejoin:round;stroke-miterlimit:10;}
</style>
<path class="st0" d="M334,283.3c-15.5,0-28,5.7-28,12.7c0,0,6.7-24,14-27.3s14,2.7,29.3-2.7s1.3-1.3,11.3-5.3c12-9.3,3.4,8.4,0,15.3
	s-8.7,21.3-22.7,27.3s-32-4-32-4"/>
<path class="st0" d="M278,324c0,5.5,12.5,10,28,10c0,0-5.3-32.8-18.7-28.7c-13.3,4-35.3-3.3-35.3-3.3s6.7,26,18,36.7s36,0,36,0"/>
<path class="st0" d="M257.3,242c3.2-0.9,24.4-6.7,40,6c2.1,1.7,16.4,13.3,12,25.3c-3.1,8.6-14.5,13.9-22,11.3c-6.3-2.2-7-9-14.7-22
	C267.1,253.3,261.3,246.4,257.3,242z"/>
<path class="st0" d="M370.7,324c6-18.7-0.8,5-30.7,5s-22.5,30.7-22.5,30.7s10,9,26.6,5S358.7,346,370.7,324z"/>
<path class="st0" d="M320,417.2c0,0-3.3-31.2,14-31.2c26,0,39.5-4.7,39.5-4.7s-0.5,23-13.5,32S320,417.2,320,417.2z"/>
<path class="st0" d="M292,390.8c0,0,4.7-27.7-18-25.1c-22.1,2.6-36.8-7-33.3-5c12.2,6.9,8,27.3,19.3,35.3
	C271.3,404,292,390.8,292,390.8z"/>
<path class="st0" d="M292,441c0,0-3.1-19.7-22-22.3c-18.9,3.7-35.3,3.7-35.3,3.7s6,15,22.7,29C278.6,464,292,441,292,441z"/>
<path class="st0" d="M310.2,458c0,0-1.1-19,17.8-18c18.6,6,38,2,38,2s3.4,7.3-16.6,25.3C320,482.7,310.2,458,310.2,458z"/>
<path class="st0" d="M336.4,348c-2,4.1-12.1,8.3-30.4,12.4"/>
<path class="st0" d="M292.4,266c10,6.7,14.6,12.4,13.6,17.3v278"/>
<path class="st0" d="M270,379.5c5.5,10.5,16.6,16.7,36,16.5"/>
<path class="st0" d="M306.1,418.7c21.2-2.9,34-9.6,38.6-20.1"/>
<path class="st0" d="M270,436.9c12.8,6.7,24.8,8.6,36,6.4"/>
<path class="st0" d="M338.2,455.1c-13.9-2.3-24.6,0-32,6.9"/>
</svg>
